<?xml version="1.0" encoding="UTF-8"?>
<svg width="800px" height="50px" viewBox="0 0 800 50" version="1.1" xmlns="http://www.w3.org/2000/svg" xmlns:xlink="http://www.w3.org/1999/xlink">
    <!-- Generator: Sketch 52.2 (67145) - http://www.bohemiancoding.com/sketch -->
    <title>Wave</title>
    <desc>Created with Sketch.</desc>
    <g id="Symbols" stroke="none" stroke-width="1" fill="none" fill-rule="evenodd">
        <g class="squiggle-stroke" id="Squiggle" transform="translate(0.000000, 10.000000)" stroke="#D5D8DB" stroke-width="20">
            <path d="M0,0 C25,0 25,30 50,30 C74.997,30 74.997,0 99.994,0 C124.993,0 124.993,30 149.992,30 C174.99,30 174.99,0 199.988,0 C224.986,0 224.986,30 249.984,30 C274.983,30 274.983,0 299.982,0 C324.982,0 324.982,30 349.982,30 C374.983,30 374.983,0 399.983,0 C424.983,0 424.983,30 449.983,30 C474.984,30 474.984,0 499.984,0 C524.984,0 524.984,30 549.983,30 C574.983,30 574.983,0 599.983,0 C624.984,0 624.984,30 649.985,30 C674.985,30 674.985,0 699.985,0 C724.989,0 724.989,30 749.993,30 C774.996,30 774.996,0 800,0" id="Wave"></path>
        </g>
    </g>
</svg>
