<svg version="1" xmlns="http://www.w3.org/2000/svg" width="1365.333" height="1365.333" viewBox="0 0 1024.000000 1024.000000"><path d="M614.5 52.8c-1.6 4.3-2.6 114.3-1.2 129.2 1.9 18.1 3.3 27.3 6.8 44 5.2 24.8 13 48 23.8 71.4 4.5 9.7 4.7 10.3 2.9 8.9-2-1.5-28.2-11.7-37.8-14.7-18.1-5.6-25.6-7.3-47.3-11-3.4-.6-12-1.5-24.7-2.5-9.9-.8-39.6-.7-46.5.3-2.2.3-6.9.8-10.4 1.1-6.6.7-22.7 3.5-31.6 5.5-2.7.7-6.1 1.4-7.5 1.6-6 1.2-26.5 7.9-38.5 12.6-14.3 5.7-31.5 14-41.3 20-3.4 2.1-6.4 3.8-6.7 3.8-1 0-29 19.6-32.1 22.4-.7.6-3.1 2.7-5.5 4.6-21.4 17.4-43.8 42.4-60.1 67-4.8 7.3-18.8 31.5-18.8 32.5 0 .2-1.5 3.6-3.4 7.7-4.3 9.5-9.9 23.6-9.7 24.5.1.2-.8 2.7-1.9 5.5-2.4 6.6-6.4 21.9-8.4 31.8-1.7 8.9-2.7 15.5-4.2 30-.4 3.6-.8 70.4-.8 148.4-.1 109.5.2 143 1.1 146.7 2.3 8.8 7.1 14.6 16.3 19.5 3.4 1.8 8.9 1.9 141.5 2.1 75.9.1 144.5.2 152.5.2 17.8.1 43.5-1.2 49.9-2.4.9-.1 4.1-.6 7.2-.9 3.1-.4 6.7-.9 8-1.1 1.3-.3 4.1-.7 6.4-1.1 5.3-.7 10.4-1.9 26.5-5.9 46.8-11.6 91.5-33.6 130.8-64.2 33.3-25.9 62.6-59.2 84.7-96.1 10.6-17.8 21.1-39.5 27.8-57.7 8.5-23 15.2-47.6 18.3-67.1.3-2 .7-4.4.9-5.3.3-1.6 1.3-8.7 2-14.6 2.1-16.9 2.7-56.3 1.1-73.5-1.3-13.6-1.3-13.8-2.6-21.5-.6-3.9-1.4-8.6-1.7-10.5-.9-5.7-1-6.4-1.6-9-.4-1.4-1.8-7.4-3.3-13.5-6.6-27.1-17-53.7-30.9-79-11.4-20.6-23.5-37.3-40-55-26.3-28.1-42.5-57.8-51.1-94-.6-2.4-3-15.7-3.8-20.5-1.4-9.2-1.9-27.4-2-72.5l-.1-49h-66.2c-52.8 0-66.4.2-66.8 1.3zM605 394.6c4.2.5 9.4 1.7 13 3.1.8.3 2.1.7 2.8.9 2.7.5 14.4 6.4 18.7 9.4 2.4 1.7 7.2 5.6 10.6 8.7 19.1 17.7 28.3 40 27.4 66.3-1.9 55.6-57.8 95.3-110.5 78.3-14-4.5-22.9-9.6-33-19-14.5-13.4-23.3-29.6-26.9-49.3-.8-4.5-.8-22.5 0-27 4-22.3 14.5-39.8 32.4-54.5 5.6-4.5 19.4-11.8 27-14.1 12-3.7 24-4.6 38.5-2.8zm201.9 181.8c-5 11-16.9 30.1-32.4 52.1-3.1 4.4-7.2 10.4-9.2 13.2-2 2.9-4 5.3-4.4 5.3-.5 0-.9.4-.9 1 0 1.3-22.5 31-29.2 38.5-27.4 30.6-55.2 50.7-95.3 68.6-14.9 6.6-45.3 15.6-59.1 17.5-2.7.3-5.1.8-5.4.9-.3.2-3.7.6-7.5 1-3.9.4-7.9.9-9 1.2-1.1.3-11.3.7-22.7.9l-20.8.5-.1-4.3c-.2-13.4.1-34.6.6-36.8.3-1.4.8-4.5 1.1-7 1.4-11.9 8.8-34 15.1-45.3 1.8-3.3 3.3-6.1 3.3-6.2 0-2.3 15.6-22 23.6-29.7 7-6.8 18.4-15.8 20.1-15.8.6 0 1.3-.3 1.5-.8 1.1-2.5 22.3-12.4 34.3-16 8.8-2.6 22.1-5.9 28-6.8 1.1-.2 4.7-1 8.1-1.8 3.4-.8 7.2-1.7 8.5-2 1.3-.2 11-2.3 21.4-4.6 10.5-2.3 19.8-4.4 20.8-4.6 1-.2 2.8-.6 3.9-1 1.1-.3 3-.7 4.1-.9 2.3-.3 3.4-.5 14-3 3.7-.9 7.9-1.8 9.5-2 1.5-.2 3.4-.6 4.2-.9.8-.3 2.6-.7 4-1 1.4-.2 4.3-.9 6.5-1.4 2.2-.6 5.1-1.3 6.5-1.6 2.4-.4 49.4-11.8 55.5-13.4 1.7-.5 3.2-.4 3.4.1.2.5-.7 3.2-2 6.1z"/></svg>